:FULLY-SPECIFIED
:FORCE-ALL-JOINTS-BE-3DOF
:DEGREES
1427
root -3.17511 15.1898 13.7003 -153.54 71.0842 -149.919
lfemur -22.1657 11.1726 -15.3628
ltibia 78.4857 -0 0
lfoot -21.211 22.6074 -0.121578
ltoes -17.9299 0 0
rfemur -43.2878 0.214471 8.0532
rtibia 45.9799 -0 0
rfoot 3.72446 0.845293 1.20846
rtoes -11.1957 0 0
lowerback 15.4832 1.17596 -2.21874
upperback -1.38561 1.27214 2.78278
thorax -10.0606 0.718319 3.94558
lowerneck -4.87891 1.05139 -2.70127
upperneck 10.1653 1.85748 -2.23118
head 4.82107 0.585964 -0.658084
lclavicle -1.53361e-16 -2.86372e-14 -5.68601e-30
lhumerus -31.8923 -56.1279 108.31
lradius 119.901 -0 0
lwrist 26.9427 0 0
lhand -27.8522 61.2162 0.0772518
lfingers 7.12502 -0 0
lthumb -1.8228 172.135 1.85301
rclavicle -1.53361e-16 -2.86372e-14 -5.68601e-30
rhumerus 5.63624 38.7371 -60.2152
rradius 108.048 -0 0
rwrist -23.2421 0 0
rhand -6.58381 -26.8961 0.0530757
rfingers 7.12502 -0 0
rthumb 20.4698 -65.4972 1.34136
1428
root -3.19385 15.1907 13.7808 -154.657 70.2666 -151.122
lfemur -22.4188 11.2378 -15.3503
ltibia 78.7257 -0 0
lfoot -21.1131 22.5843 -0.12141
ltoes -17.9516 0 0
rfemur -43.2951 0.222869 8.17033
rtibia 46.2071 -0 0
rfoot 3.38566 0.757556 1.21424
rtoes -11.451 0 0
lowerback 15.5161 1.18456 -2.11698
upperback -1.38543 1.30218 2.79897
thorax -10.0805 0.727042 3.89854
lowerneck -4.87168 1.16131 -2.61303
upperneck 10.0884 2.00613 -2.3353
head 4.79748 0.658355 -0.698019
lclavicle -4.42408e-16 -2.88517e-14 -5.68743e-30
lhumerus -31.5578 -56.2929 108.064
lradius 119.953 -0 0
lwrist 26.7376 0 0
lhand -27.8298 61.2742 0.0762732
lfingers 7.12502 -0 0
lthumb -1.79191 173.131 1.85453
rclavicle -4.42408e-16 -2.88517e-14 -5.68743e-30
rhumerus 5.06859 38.9119 -60.4463
rradius 108.076 -0 0
rwrist -23.5544 0 0
rhand -6.33253 -26.9037 0.0497933
rfingers 7.12502 -0 0
rthumb 20.6971 -65.3522 1.34734
1429
root -3.21257 15.1916 13.8612 -155.681 69.4422 -152.233
lfemur -22.672 11.303 -15.3382
ltibia 78.9653 -0 0
lfoot -21.0153 22.5613 -0.121196
ltoes -17.973 0 0
rfemur -43.3022 0.231061 8.28753
rtibia 46.4346 -0 0
rfoot 3.04683 0.669375 1.21955
rtoes -11.7063 0 0
lowerback 15.5489 1.19307 -2.01531
upperback -1.38526 1.33218 2.81513
thorax -10.1004 0.735732 3.85154
lowerneck -4.86429 1.27108 -2.52486
upperneck 10.0112 2.15444 -2.43949
head 4.77381 0.730641 -0.737924
lclavicle -7.31866e-16 -2.90649e-14 -5.68729e-30
lhumerus -31.2193 -56.4562 107.814
lradius 120.004 -0 0
lwrist 26.5322 0 0
lhand -27.8074 61.3318 0.0752709
lfingers 7.12502 -0 0
lthumb -1.76091 174.129 1.85546
rclavicle -7.31866e-16 -2.90649e-14 -5.68729e-30
rhumerus 4.49809 39.0847 -60.6808
rradius 108.105 -0 0
rwrist -23.8673 0 0
rhand -6.08149 -26.9116 0.0465656
rfingers 7.12502 -0 0
rthumb 20.9239 -65.2059 1.35257
1430
root -3.23126 15.1925 13.9415 -156.622 68.6117 -153.262
lfemur -22.9253 11.3683 -15.3263
ltibia 79.2043 -0 0
lfoot -20.9174 22.5384 -0.120938
ltoes -17.994 0 0
rfemur -43.3091 0.239046 8.40477
rtibia 46.6624 -0 0
rfoot 2.70803 0.580763 1.22438
rtoes -11.9616 0 0
lowerback 15.5817 1.20151 -1.91377
upperback -1.38508 1.36213 2.83127
thorax -10.1203 0.744388 3.80459
lowerneck -4.85675 1.38069 -2.43676
upperneck 9.93373 2.30239 -2.54372
head 4.75006 0.80281 -0.777796
lclavicle -1.02171e-15 -2.92769e-14 -5.68559e-30
lhumerus -30.8767 -56.6177 107.56
lradius 120.055 -0 0
lwrist 26.3264 0 0
lhand -27.7851 61.3891 0.0742457
lfingers 7.12502 -0 0
lthumb -1.72981 175.128 1.8558
rclavicle -1.02171e-15 -2.92769e-14 -5.68559e-30
rhumerus 3.9248 39.2554 -60.9188
rradius 108.132 -0 0
rwrist -24.1806 0 0
rhand -5.83074 -26.9199 0.0433945
rfingers 7.12502 -0 0
rthumb 21.1504 -65.0584 1.35705
1431
root -3.24993 15.1934 14.0217 -157.49 67.7761 -154.217
lfemur -23.1787 11.4337 -15.3147
ltibia 79.4428 -0 0
lfoot -20.8195 22.5155 -0.120634
ltoes -18.0145 0 0
rfemur -43.3157 0.246822 8.52203
rtibia 46.8904 -0 0
rfoot 2.3693 0.491734 1.22873
rtoes -12.2167 0 0
lowerback 15.6144 1.20986 -1.81235
upperback -1.3849 1.39202 2.84739
thorax -10.1401 0.753009 3.75771
lowerneck -4.84905 1.49011 -2.34875
upperneck 9.85591 2.44997 -2.64798
head 4.72624 0.874854 -0.817629
lclavicle -1.31193e-15 -2.94875e-14 -5.68233e-30
lhumerus -30.53 -56.7773 107.303
lradius 120.104 -0 0
lwrist 26.1203 0 0
lhand -27.7628 61.4458 0.0731981
lfingers 7.12502 -0 0
lthumb -1.69864 176.128 1.85555
rclavicle -1.31193e-15 -2.94875e-14 -5.68233e-30
rhumerus 3.3488 39.424 -61.16
rradius 108.159 -0 0
rwrist -24.4943 0 0
rhand -5.5803 -26.9286 0.0402821
rfingers 7.12502 -0 0
rthumb 21.3763 -64.9098 1.36079
1432
root -3.26858 15.1943 14.1017 -158.292 66.936 -155.106
lfemur -23.432 11.4992 -15.3034
ltibia 79.6808 -0 0
lfoot -20.7217 22.4928 -0.120286
ltoes -18.0348 0 0
rfemur -43.3222 0.254387 8.63929
rtibia 47.1186 -0 0
rfoot 2.0307 0.402302 1.2326
rtoes -12.4717 0 0
lowerback 15.647 1.21813 -1.71108
upperback -1.38471 1.42184 2.86348
thorax -10.1599 0.761593 3.71089
lowerneck -4.8412 1.59934 -2.26084
upperneck 9.7778 2.59716 -2.75226
head 4.70235 0.946763 -0.857419
lclavicle -1.60248e-15 -2.96969e-14 -5.67751e-30
lhumerus -30.1793 -56.935 107.041
lradius 120.151 -0 0
lwrist 25.9139 0 0
lhand -27.7406 61.5022 0.0721289
lfingers 7.12502 -0 0
lthumb -1.6674 177.129 1.85471
rclavicle -1.60248e-15 -2.96969e-14 -5.67751e-30
rhumerus 2.77015 39.5905 -61.4046
rradius 108.186 -0 0
rwrist -24.8083 0 0
rhand -5.3302 -26.9377 0.0372303
rfingers 7.12502 -0 0
rthumb 21.6017 -64.7601 1.36378
